<?xml version="1.0" standalone="no"?>
<!DOCTYPE svg PUBLIC "-//W3C//DTD SVG 20010904//EN"
 "http://www.w3.org/TR/2001/REC-SVG-20010904/DTD/svg10.dtd">
<svg version="1.0" xmlns="http://www.w3.org/2000/svg"
 width="1280.000000pt" height="640.000000pt" viewBox="0 0 1280.000000 640.000000"
 preserveAspectRatio="xMidYMid meet">
<metadata>
Created by potrace 1.15, written by Peter Selinger 2001-2017
</metadata>
<g transform="translate(0.000000,640.000000) scale(0.100000,-0.100000)"
fill="#f78849" stroke="none">
<path d="M0 4685 l0 -185 175 0 175 0 0 -130 0 -130 -175 0 -175 0 2 -1037 3
-1038 173 -3 172 -2 0 -125 0 -125 -175 0 -175 0 0 -190 0 -190 210 0 210 0 0
155 0 155 80 0 80 0 0 -140 0 -140 5820 0 5820 0 0 140 0 140 80 0 80 0 0
-155 0 -155 210 0 210 0 0 190 0 190 -175 0 -175 0 0 125 0 125 173 2 172 3 3
1038 2 1037 -175 0 -175 0 0 130 0 130 175 0 175 0 0 185 0 185 -210 0 -210 0
0 -150 0 -150 -80 0 -80 0 0 140 0 140 -5820 0 -5820 0 0 -140 0 -140 -80 0
-80 0 0 150 0 150 -210 0 -210 0 0 -185z m350 5 l0 -120 -140 0 -140 0 0 120
0 120 140 0 140 0 0 -120z m12380 0 l0 -120 -140 0 -140 0 0 120 0 120 140 0
140 0 0 -120z m-590 -20 l0 -100 -170 0 -170 0 0 -165 0 -166 -117 3 -118 3
-3 163 -2 162 -178 0 -177 0 3 -205 3 -205 134 0 135 0 0 -105 0 -105 -220 0
-220 0 -2 308 -3 307 -382 3 -383 2 0 -35 0 -35 350 0 350 0 0 -310 0 -310
255 0 255 0 0 -125 0 -125 160 0 160 0 0 -425 0 -424 -157 -3 -158 -3 -3 -122
-3 -123 -252 -2 -252 -3 -3 -307 -2 -308 -350 0 -350 0 0 -35 0 -35 385 0 385
0 0 310 0 310 220 0 220 0 0 -105 0 -104 -135 -3 -136 -3 0 -205 0 -205 176
-3 175 -2 0 165 0 165 120 0 120 0 0 -160 0 -160 170 0 170 0 0 -100 0 -100
-5740 0 -5740 0 0 100 0 100 170 0 170 0 0 160 0 160 120 0 120 0 0 -165 0
-165 175 2 176 3 0 205 0 205 -136 3 -135 3 0 104 0 105 220 0 220 0 0 -310 0
-310 385 0 385 0 0 35 0 35 -350 0 -350 0 -2 307 -3 308 -252 3 -252 2 -3 123
-3 122 -157 3 -158 3 0 424 0 425 160 0 160 0 0 125 0 125 255 0 255 0 0 310
0 310 350 0 350 0 0 35 0 35 -382 -2 -383 -3 -3 -307 -2 -308 -220 0 -220 0 0
105 0 105 135 0 134 0 3 205 3 205 -177 0 -178 0 -2 -162 -3 -163 -117 -3
-118 -3 0 166 0 165 -170 0 -170 0 0 100 0 100 5740 0 5740 0 0 -100z m-11565
-300 l0 -125 -77 -3 -78 -3 0 131 0 131 78 -3 77 -3 0 -125z m363 3 l-3 -128
-137 -3 -138 -3 0 131 0 130 140 0 141 0 -3 -127z m11202 -3 l0 -131 -137 3
-138 3 -3 128 -3 127 141 0 140 0 0 -130z m240 0 l0 -131 -77 3 -78 3 -3 114
c-1 63 0 121 2 128 4 9 28 13 81 13 l75 0 0 -130z m-10870 -5 l0 -125 -95 0
-95 0 0 125 0 125 95 0 95 0 0 -125z m9970 0 l0 -125 -95 0 -95 0 0 125 0 125
95 0 95 0 0 -125z m-11130 -345 l0 -140 115 0 116 0 -3 -82 -3 -83 -142 -3
-143 -3 0 -214 0 -215 185 0 185 0 0 175 0 175 140 0 140 0 0 -425 0 -425
-140 0 -140 0 0 175 0 175 -185 0 -185 0 0 -220 0 -220 145 0 146 0 -3 -81 -3
-80 -110 -2 -110 -2 -3 -137 -3 -138 -129 0 -130 0 0 955 0 955 130 0 130 0 0
-140z m230 35 l0 -105 -80 0 -80 0 0 105 0 105 80 0 80 0 0 -105z m360 0 l0
-105 -140 0 -140 0 0 105 0 105 140 0 140 0 0 -105z m300 0 l0 -105 -120 0
-120 0 0 105 0 105 120 0 120 0 0 -105z m10560 0 l0 -105 -120 0 -120 0 0 105
0 105 120 0 120 0 0 -105z m340 0 l0 -105 -140 0 -140 0 0 105 0 105 140 0
140 0 0 -105z m240 0 l0 -105 -80 0 -80 0 0 105 0 105 80 0 80 0 0 -105z m330
-850 l0 -955 -130 0 -129 0 -3 138 -3 137 -110 2 -110 2 -3 80 -3 81 146 0
145 0 0 220 0 220 -185 0 -185 0 0 -175 0 -175 -140 0 -140 0 0 425 0 425 140
0 140 0 0 -175 0 -175 185 0 185 0 0 215 0 214 -142 3 -143 3 -3 83 -3 82 116
0 115 0 0 140 0 140 130 0 130 0 0 -955z m-11772 593 l-3 -83 -137 -3 -138 -3
0 86 0 85 140 0 141 0 -3 -82z m300 0 l-3 -83 -115 0 -115 0 -3 83 -3 82 121
0 121 0 -3 -82z m10560 0 l-3 -83 -115 0 -115 0 -3 83 -3 82 121 0 121 0 -3
-82z m342 -3 l0 -86 -137 3 -138 3 -3 83 -3 82 141 0 140 0 0 -85z m-11562
-297 l-3 -133 -102 -3 -103 -3 0 136 0 135 105 0 106 0 -3 -132z m11852 -3 l0
-136 -102 3 -103 3 -3 133 -3 132 106 0 105 0 0 -135z m-11852 -582 l3 -133
-106 0 -105 0 0 128 c0 71 3 132 7 136 4 4 50 5 103 4 l95 -3 3 -132z m11850
0 l3 -133 -106 0 -105 0 0 128 c0 71 3 132 7 136 4 4 50 5 103 4 l95 -3 3
-132z m-11490 -305 c-2 -46 -6 -82 -10 -80 -5 1 -66 2 -138 2 l-130 0 0 80 0
80 140 0 141 0 -3 -82z m300 1 l-3 -81 -115 0 -115 0 -3 81 -3 81 121 0 121 0
-3 -81z m10560 0 l-3 -81 -115 0 -115 0 -3 81 -3 81 121 0 121 0 -3 -81z m342
1 l0 -80 -130 0 c-71 0 -133 -1 -137 -2 -5 -2 -9 34 -11 80 l-3 82 141 0 140
0 0 -80z m-11562 -257 l3 -103 -81 0 -80 0 0 105 0 106 78 -3 77 -3 3 -102z
m362 2 l0 -105 -140 0 -140 0 0 105 0 105 140 0 140 0 0 -105z m300 0 l0 -105
-120 0 -120 0 0 105 0 105 120 0 120 0 0 -105z m10560 0 l0 -105 -120 0 -120
0 0 105 0 105 120 0 120 0 0 -105z m340 0 l0 -105 -140 0 -140 0 0 105 0 105
140 0 140 0 0 -105z m240 0 l0 -105 -80 0 -80 0 0 98 c0 54 3 102 7 105 3 4
39 7 80 7 l73 0 0 -105z m-11800 -320 l0 -125 -80 0 -80 0 0 125 0 125 80 0
80 0 0 -125z m360 0 l0 -125 -140 0 -140 0 0 125 0 125 140 0 140 0 0 -125z
m570 5 l0 -120 -95 0 -95 0 0 120 0 120 95 0 95 0 0 -120z m9970 0 l0 -120
-95 0 -95 0 0 120 0 120 95 0 95 0 0 -120z m660 -5 l0 -125 -140 0 -140 0 0
125 0 125 140 0 140 0 0 -125z m240 0 l0 -125 -80 0 -80 0 0 125 0 125 80 0
80 0 0 -125z m-12030 -315 l0 -120 -140 0 -140 0 0 120 0 120 140 0 140 0 0
-120z m12380 0 l0 -120 -140 0 -140 0 0 120 0 120 140 0 140 0 0 -120z"/>
</g>
</svg>
